# xmcd CD database file
#
# Track frame offsets:
#	150
#	13955
#	27486
#	41038
#	56665
#	69359
#	85254
#	97654
#	113785
#	126391
#
# Disc length: 1862 seconds
#
# Revision: 0
# Processed by: cddbd v1.5.1PL2 Copyright (c) Steve Scherf et al.
# Submitted via: CDex 1.70beta2
#
DISCID=8307440a
DTITLE=Charlie Parker - The Best of Charlie Parker
DYEAR=1900
DGENRE=Jazz
TTITLE0=Now's The Time 
TTITLE1=Confirmation
TTITLE2=The Song s You
TTITLE3=Bloomdido
TTITLE4=Summertime
TTITLE5=Just Friends
TTITLE6=Au Privave
TTITLE7=Star Eyes
TTITLE8=Tico tico
TTITLE9=Laura
EXTD=
EXTT0=
EXTT1=
EXTT2=
EXTT3=
EXTT4=
EXTT5=
EXTT6=
EXTT7=
EXTT8=
EXTT9=
PLAYORDER=
